<?xml version="1.0" encoding="UTF-8" standalone="no"?>
<svg width="127.706mm" height="71.9667mm"
 viewBox="0 0 362 204"
 xmlns="http://www.w3.org/2000/svg" xmlns:xlink="http://www.w3.org/1999/xlink" version="1.2" baseProfile="tiny">
<title>Slice 8</title>
<desc>Dorico</desc>
<defs>
</defs>
<g fill="none" stroke="black" stroke-width="1" fill-rule="evenodd" stroke-linecap="square" stroke-linejoin="bevel" >

<g fill="none" stroke="#000000" stroke-opacity="1" stroke-width="1.84252" stroke-linecap="butt" stroke-linejoin="miter" stroke-miterlimit="2" transform="matrix(1,0,0,1,0,0)"
font-family=".AppleSystemUIFont" font-size="13" font-weight="400" font-style="normal" 
>
<polyline fill="none" vector-effect="none" points="14.17,145.039 348.66,145.039 " />
<polyline fill="none" vector-effect="none" points="14.17,116.693 348.66,116.693 " />
<polyline fill="none" vector-effect="none" points="14.17,130.866 348.66,130.866 " />
<polyline fill="none" vector-effect="none" points="14.17,102.52 348.66,102.52 " />
<polyline fill="none" vector-effect="none" points="14.17,88.3465 348.66,88.3465 " />
</g>

<g fill="none" stroke="#000000" stroke-opacity="1" stroke-width="2.26772" stroke-linecap="butt" stroke-linejoin="miter" stroke-miterlimit="2" transform="matrix(1,0,0,1,0,0)"
font-family=".AppleSystemUIFont" font-size="13" font-weight="400" font-style="normal" 
>
<polyline fill="none" vector-effect="none" points="333.353,87.4252 333.353,145.961 " />
</g>

<g fill="none" stroke="#000000" stroke-opacity="1" stroke-width="7.08661" stroke-linecap="butt" stroke-linejoin="miter" stroke-miterlimit="2" transform="matrix(1,0,0,1,0,0)"
font-family=".AppleSystemUIFont" font-size="13" font-weight="400" font-style="normal" 
>
<polyline fill="none" vector-effect="none" points="345.117,87.4252 345.117,145.961 " />
</g>

<g fill="none" stroke="#000000" stroke-opacity="1" stroke-width="1.5748" stroke-linecap="butt" stroke-linejoin="miter" stroke-miterlimit="2" transform="matrix(1,0,0,1,0,0)"
font-family=".AppleSystemUIFont" font-size="13" font-weight="400" font-style="normal" 
>
<polyline fill="none" vector-effect="none" points="129.157,164.882 210.637,36.378 " />
</g>

<g fill="none" stroke="#000000" stroke-opacity="1" stroke-width="2.26772" stroke-linecap="butt" stroke-linejoin="miter" stroke-miterlimit="2" transform="matrix(1,0,0,1,0,0)"
font-family=".AppleSystemUIFont" font-size="13" font-weight="400" font-style="normal" 
>
<polyline fill="none" vector-effect="none" points="96.3773,159.213 130.102,159.213 " />
<polyline fill="none" vector-effect="none" points="209.692,31.6535 246.96,31.6535 " />
<polyline fill="none" vector-effect="none" points="209.692,45.8268 246.96,45.8268 " />
<polyline fill="none" vector-effect="none" points="209.692,60 246.96,60 " />
<polyline fill="none" vector-effect="none" points="209.692,74.1732 246.96,74.1732 " />
</g>

<g fill="none" stroke="#000000" stroke-opacity="1" stroke-width="1" stroke-linecap="square" stroke-linejoin="bevel" transform="matrix(0.5,0,0,0.5,82.1944,166.299)"
font-family="Bravura" font-size="113" font-weight="400" font-style="normal" 
>
</g>

<g fill="#000000" fill-opacity="1" stroke="none" transform="matrix(0.5,0,0,0.5,82.1944,166.299)"
font-family="Bravura" font-size="113" font-weight="400" font-style="normal" 
>
<path vector-effect="none" fill-rule="nonzero" d="M5.311,9.153 C5.311,9.153 4.972,2.373 4.972,-2.147 C4.972,-3.955 5.085,-5.311 5.198,-5.763 C5.989,-8.023 10.509,-11.3 13.108,-11.3 C16.385,-11.3 17.741,-7.571 17.741,-4.746 C17.741,1.356 12.543,7.458 7.684,10.509 C7.232,10.735 6.893,10.848 6.554,10.848 C5.537,10.848 5.311,9.718 5.311,9.153 M1.356,19.21 C1.695,19.662 2.034,19.775 2.373,19.775 C2.712,19.775 3.051,19.549 3.051,19.549 C6.441,17.628 9.153,14.577 11.978,12.656 C22.035,5.65 25.538,-1.243 25.538,-6.441 C25.538,-12.882 20.566,-16.95 15.368,-17.289 C13.447,-17.289 10.735,-16.385 9.153,-15.368 C8.475,-14.803 7.232,-13.786 6.667,-13.786 C6.441,-13.786 6.328,-13.786 6.102,-13.899 C5.311,-14.238 4.859,-15.029 4.859,-15.82 C4.972,-18.306 5.65,-45.426 5.65,-47.686 C5.65,-48.929 4.633,-49.607 3.503,-49.607 C1.921,-49.607 0.113,-48.477 0,-46.443 C0,-46.443 0.452,18.08 1.356,19.21 "/>
</g>

<g fill="none" stroke="#000000" stroke-opacity="1" stroke-width="1" stroke-linecap="square" stroke-linejoin="bevel" transform="matrix(0.5,0,0,0.5,82.1944,166.299)"
font-family="Bravura" font-size="113" font-weight="400" font-style="normal" 
>
<text fill="#000000" fill-opacity="1" stroke="none" xml:space="preserve" x="0" y="0" font-family=".AppleSystemUIFont" font-size="13" font-weight="400" font-style="normal" 
 ></text>
</g>

<g fill="none" stroke="#000000" stroke-opacity="1" stroke-width="1" stroke-linecap="square" stroke-linejoin="bevel" transform="matrix(0.5,0,0,0.5,98.5033,166.299)"
font-family="Bravura" font-size="113" font-weight="400" font-style="normal" 
>
</g>

<g fill="#000000" fill-opacity="1" stroke="none" transform="matrix(0.5,0,0,0.5,98.5033,166.299)"
font-family="Bravura" font-size="113" font-weight="400" font-style="normal" 
>
<path vector-effect="none" fill-rule="nonzero" d="M23.391,-12.656 C31.753,-12.656 38.533,-3.616 38.533,3.842 C38.533,10.057 34.691,12.543 29.154,12.543 C21.018,12.543 13.221,3.164 13.221,-4.746 C13.221,-11.074 17.628,-12.656 23.391,-12.656 M26.555,-15.481 C10.17,-15.481 0,-8.588 0,-0.226 C0,8.023 7.006,15.368 25.312,15.368 C45.426,15.368 51.867,8.362 51.867,-0.226 C51.867,-8.927 37.968,-15.481 26.555,-15.481 "/>
</g>

<g fill="none" stroke="#000000" stroke-opacity="1" stroke-width="1" stroke-linecap="square" stroke-linejoin="bevel" transform="matrix(0.5,0,0,0.5,98.5033,166.299)"
font-family="Bravura" font-size="113" font-weight="400" font-style="normal" 
>
<text fill="#000000" fill-opacity="1" stroke="none" xml:space="preserve" x="0" y="0" font-family=".AppleSystemUIFont" font-size="13" font-weight="400" font-style="normal" 
 ></text>
</g>

<g fill="none" stroke="#000000" stroke-opacity="1" stroke-width="1" stroke-linecap="square" stroke-linejoin="bevel" transform="matrix(0.5,0,0,0.5,215.361,31.6535)"
font-family="Bravura" font-size="113" font-weight="400" font-style="normal" 
>
</g>

<g fill="#000000" fill-opacity="1" stroke="none" transform="matrix(0.5,0,0,0.5,215.361,31.6535)"
font-family="Bravura" font-size="113" font-weight="400" font-style="normal" 
>
<path vector-effect="none" fill-rule="nonzero" d="M23.391,-12.656 C31.753,-12.656 38.533,-3.616 38.533,3.842 C38.533,10.057 34.691,12.543 29.154,12.543 C21.018,12.543 13.221,3.164 13.221,-4.746 C13.221,-11.074 17.628,-12.656 23.391,-12.656 M26.555,-15.481 C10.17,-15.481 0,-8.588 0,-0.226 C0,8.023 7.006,15.368 25.312,15.368 C45.426,15.368 51.867,8.362 51.867,-0.226 C51.867,-8.927 37.968,-15.481 26.555,-15.481 "/>
</g>

<g fill="none" stroke="#000000" stroke-opacity="1" stroke-width="1" stroke-linecap="square" stroke-linejoin="bevel" transform="matrix(0.5,0,0,0.5,215.361,31.6535)"
font-family="Bravura" font-size="113" font-weight="400" font-style="normal" 
>
<text fill="#000000" fill-opacity="1" stroke="none" xml:space="preserve" x="0" y="0" font-family=".AppleSystemUIFont" font-size="13" font-weight="400" font-style="normal" 
 ></text>
</g>

<g fill="none" stroke="#000000" stroke-opacity="1" stroke-width="1" stroke-linecap="square" stroke-linejoin="bevel" transform="matrix(0.5,0,0,0.5,21.2566,130.866)"
font-family="Bravura" font-size="113" font-weight="400" font-style="normal" 
>
</g>

<g fill="#000000" fill-opacity="1" stroke="none" transform="matrix(0.5,0,0,0.5,21.2566,130.866)"
font-family="Bravura" font-size="113" font-weight="400" font-style="normal" 
>
<path vector-effect="none" fill-rule="nonzero" d="M40.793,-29.606 C41.132,-27.459 41.132,-27.572 39.098,-26.894 C29.154,-23.504 22.713,-14.577 22.713,-4.972 C22.713,5.198 28.024,12.43 35.708,15.029 C36.612,15.368 37.968,15.707 38.759,15.707 C39.663,15.707 40.115,15.142 40.115,14.464 C40.115,13.673 39.211,13.334 38.42,12.995 C33.674,10.961 30.284,6.102 30.284,0.904 C30.284,-5.537 34.691,-10.396 41.584,-12.317 C43.392,-12.769 43.618,-12.656 43.844,-11.413 L49.494,22.261 C49.72,23.504 49.607,23.504 47.912,23.843 C46.104,24.182 43.844,24.408 41.584,24.408 C21.809,24.408 9.04,13.447 9.04,-2.26 C9.04,-8.927 10.17,-17.854 19.549,-28.476 C26.329,-36.047 31.527,-40.228 36.838,-44.522 C37.968,-45.426 38.194,-45.313 38.42,-44.07 L40.793,-29.606 M53.11,-106.559 C56.839,-106.559 59.89,-103.508 59.89,-97.293 C59.89,-84.75 49.155,-74.58 40.228,-66.783 C39.437,-66.105 38.985,-66.218 38.759,-67.687 C38.307,-70.625 38.081,-74.467 38.081,-78.083 C38.081,-95.711 46.217,-106.559 53.11,-106.559 M48.59,-11.639 C48.364,-12.995 48.477,-13.334 49.833,-13.221 C58.986,-12.43 66.557,-4.746 66.557,5.198 C66.557,12.317 62.263,18.08 55.935,21.244 C54.579,21.922 54.353,21.922 54.127,20.566 L48.59,-11.639 M42.488,-46.895 C42.262,-48.251 42.488,-48.364 43.166,-49.042 C55.37,-60.455 64.636,-74.806 64.636,-92.095 C64.636,-101.926 61.924,-111.644 57.291,-118.424 C55.596,-120.91 52.658,-124.074 51.415,-124.074 C49.833,-124.074 46.33,-121.136 44.07,-118.65 C35.708,-109.384 32.996,-95.259 32.996,-83.507 C32.996,-76.953 33.787,-69.608 34.578,-64.975 C34.804,-63.619 34.917,-63.393 33.561,-62.263 C17.289,-48.816 0,-32.657 0,-9.831 C0,9.831 13.447,28.476 41.132,28.476 C43.731,28.476 46.669,28.25 48.929,27.798 C50.172,27.572 50.398,27.459 50.624,28.815 C51.98,36.386 53.675,46.217 53.675,51.528 C53.675,68.252 42.375,70.286 35.708,70.286 C29.606,70.286 26.668,68.478 26.668,67.009 C26.668,66.218 27.685,65.879 30.284,65.088 C33.787,64.071 37.855,61.02 37.855,54.466 C37.855,48.251 33.9,42.94 27.007,42.94 C19.436,42.94 14.916,48.929 14.916,55.935 C14.916,63.28 19.323,74.354 36.386,74.354 C43.957,74.354 58.647,70.964 58.647,51.754 C58.647,45.313 56.613,34.578 55.37,27.572 C55.144,26.216 55.257,26.329 56.839,25.651 C68.252,21.131 75.823,11.526 75.823,-1.243 C75.823,-15.707 65.201,-28.476 48.59,-28.476 C45.652,-28.476 45.652,-28.476 45.313,-30.51 L42.488,-46.895"/>
</g>

<g fill="none" stroke="#000000" stroke-opacity="1" stroke-width="1" stroke-linecap="square" stroke-linejoin="bevel" transform="matrix(0.5,0,0,0.5,21.2566,130.866)"
font-family="Bravura" font-size="113" font-weight="400" font-style="normal" 
>
<text fill="#000000" fill-opacity="1" stroke="none" xml:space="preserve" x="0" y="0" font-family=".AppleSystemUIFont" font-size="13" font-weight="400" font-style="normal" 
 ></text>
</g>

<g fill="none" stroke="#000000" stroke-opacity="1" stroke-width="2" stroke-linecap="butt" stroke-linejoin="miter" stroke-miterlimit="2" transform="matrix(1,0,0,1,0,0)"
font-family="Bravura" font-size="113" font-weight="400" font-style="normal" 
>
</g>

<g fill="none" stroke="#000000" stroke-opacity="1" stroke-width="2" stroke-linecap="butt" stroke-linejoin="miter" stroke-miterlimit="2" transform="matrix(0.5,0,0,0.5,328.66,28.3465)"
font-family="Bravura" font-size="113" font-weight="400" font-style="normal" 
>
</g>

<g fill="none" stroke="#000000" stroke-opacity="1" stroke-width="2" stroke-linecap="butt" stroke-linejoin="miter" stroke-miterlimit="2" transform="matrix(0.5,0,0,0.5,328.66,28.3465)"
font-family="Bravura" font-size="113" font-weight="400" font-style="normal" 
>
</g>

<g fill="none" stroke="#000000" stroke-opacity="1" stroke-width="2" stroke-linecap="butt" stroke-linejoin="miter" stroke-miterlimit="2" transform="matrix(0.5,0,0,0.5,328.66,28.3465)"
font-family="Bravura" font-size="113" font-weight="400" font-style="normal" 
>
</g>

<g fill="none" stroke="#000000" stroke-opacity="1" stroke-width="2" stroke-linecap="butt" stroke-linejoin="miter" stroke-miterlimit="2" transform="matrix(1,0,0,1,0,0)"
font-family="Bravura" font-size="113" font-weight="400" font-style="normal" 
>
</g>

<g fill="none" stroke="#000000" stroke-opacity="1" stroke-width="2" stroke-linecap="butt" stroke-linejoin="miter" stroke-miterlimit="2" transform="matrix(0.5,0,0,0.5,14.17,28.3465)"
font-family="Bravura" font-size="113" font-weight="400" font-style="normal" 
>
</g>

<g fill="none" stroke="#000000" stroke-opacity="1" stroke-width="2" stroke-linecap="butt" stroke-linejoin="miter" stroke-miterlimit="2" transform="matrix(0.5,0,0,0.5,14.17,28.3465)"
font-family="Bravura" font-size="113" font-weight="400" font-style="normal" 
>
</g>

<g fill="none" stroke="#000000" stroke-opacity="1" stroke-width="2" stroke-linecap="butt" stroke-linejoin="miter" stroke-miterlimit="2" transform="matrix(0.5,0,0,0.5,14.17,28.3465)"
font-family="Bravura" font-size="113" font-weight="400" font-style="normal" 
>
</g>

<g fill="none" stroke="#000000" stroke-opacity="1" stroke-width="2" stroke-linecap="butt" stroke-linejoin="miter" stroke-miterlimit="2" transform="matrix(1,0,0,1,0,0)"
font-family="Bravura" font-size="113" font-weight="400" font-style="normal" 
>
</g>
</g>
</svg>
